<svg width="225" height="225" viewBox="0 0 225 225" fill="none" xmlns="http://www.w3.org/2000/svg">
<path fill-rule="evenodd" clip-rule="evenodd" d="M106.452 23.2598C108.324 16.8313 110.194 10.4121 112 4C114.809 8.46872 116.138 14.1803 117.412 19.6572C117.92 21.8399 118.419 23.9853 119 26C120.014 29.5179 121.049 33.0415 122.086 36.5707C125.634 48.6479 129.201 60.7916 132 73C139.488 69.8661 146.494 65.6831 153.5 61.5C160.506 57.3169 167.512 53.1339 175 50C171.883 59.85 166.076 69.3367 160.385 78.6345C157.427 83.4659 154.501 88.2462 152 93C159.477 95.1217 166.976 97.1659 174.474 99.2101C182.994 101.533 191.514 103.855 200 106.291C201.906 106.838 203.927 107.31 205.981 107.79C211.23 109.016 216.692 110.292 221 113L177 125.421C174.913 126.016 172.81 126.655 170.694 127.299C164.526 129.174 158.257 131.08 152 132C156.069 141.444 161.358 150.462 166.631 159.452C169.854 164.948 173.071 170.434 176 176C166.54 171.924 157.536 166.642 148.555 161.374C143.061 158.151 137.576 154.934 132 152C129.64 163.404 126.281 174.724 122.943 185.972C121.751 189.99 120.561 193.999 119.421 198C118.793 200.203 118.25 202.586 117.694 205.023C116.338 210.969 114.909 217.237 112 222C109.771 212.276 106.707 202.617 103.638 192.944C99.34 179.396 95.0334 165.821 93 152C87.0939 154.757 81.3766 158.297 75.641 161.849C67.3418 166.988 59.0042 172.15 50 175C53.1355 167.471 57.3349 160.445 61.5335 153.422C65.7044 146.444 69.8745 139.468 73 132C65.4605 130.89 57.9893 128.579 50.5898 126.291C47.3796 125.298 44.1829 124.309 41 123.424C37.0879 122.337 33.1163 121.345 29.1352 120.352C20.6385 118.231 12.0984 116.1 4 113C8.65384 110.156 14.6175 108.798 20.3206 107.499C22.6241 106.974 24.885 106.459 27 105.86L73 93C69.1303 86.3762 65.4847 79.6048 61.8439 72.8421C60.7944 70.8928 59.7453 68.9442 58.6914 67C57.8627 65.4714 56.9771 63.955 56.0888 62.4339C53.7472 58.4244 51.3868 54.3825 50 50C57.4874 53.1339 64.4937 57.3169 71.5 61.5C78.5063 65.6831 85.5126 69.8661 93 73C96.8209 56.333 101.646 39.7656 106.452 23.2598ZM112 112V39C114.48 42.0265 115.477 46.1713 116.434 50.149C116.751 51.4666 117.063 52.7658 117.424 54C120.153 63.3396 122.914 72.683 125.72 82C126.026 83.0148 126.462 84.1339 126.92 85.3093C128.422 89.165 130.161 93.6264 128.303 97C125.467 102.151 117.538 110.142 112 112.258C108.543 113.578 104.153 113.353 100.106 113.145C98.6758 113.071 97.2882 113 96 113H64C61.9664 113 59.7021 113.141 57.3438 113.287C51.0279 113.68 44.0377 114.114 39 112C46.1208 109.979 53.2054 107.841 60.2898 105.702C66.5186 103.821 72.7472 101.941 79 100.141C80.1504 99.8099 81.4414 99.3345 82.8053 98.8323C86.8159 97.3556 91.4561 95.647 95 96.6937C99.7333 98.0915 104.234 103.26 108.121 107.724C109.496 109.304 110.795 110.795 112 112ZM80 92C74.8184 84.143 69.9808 75.5262 66 67C70.9312 68.4234 75.3895 71.0744 79.809 73.7023C80.8729 74.3349 81.9345 74.9662 83 75.5787C83.4804 75.8549 84.0031 76.1288 84.5421 76.4114C86.5675 77.473 88.8237 78.6556 89.9329 80.5293C91.015 82.3574 90.6352 85.0116 90.2933 87.401C90.1606 88.3285 90.0336 89.2161 90 90L80 92ZM145 92C136.398 90.3307 134.615 88.5671 133 80C134.469 79.1426 135.965 78.2442 137.484 77.3324C144.037 73.3976 151.005 69.2135 158 67C155.786 73.997 151.6 80.9678 147.664 87.5227C146.753 89.039 145.856 90.533 145 92ZM130 129.212C123.735 127.662 116.566 118.062 113 113H162C163.863 113 165.917 112.878 168.05 112.751C173.876 112.404 180.289 112.023 185 114C175.896 115.345 166.67 118.471 157.65 121.526C154.061 122.743 150.504 123.948 147 125.025C145.837 125.382 144.477 125.905 143.015 126.465C138.723 128.112 133.561 130.093 130 129.212ZM106.798 117.821C108.337 116.477 109.8 115.2 111 114C112.703 118.059 112.427 123.326 112.173 128.18C112.085 129.858 112 131.487 112 133V167C112 168.33 112.067 169.742 112.136 171.19C112.344 175.566 112.567 180.266 111 184C108.836 176.374 106.548 168.786 104.26 161.198C102.633 155.804 101.007 150.409 99.4244 145C99.1291 143.99 98.7045 142.842 98.2526 141.619C96.8418 137.802 95.1652 133.267 96.3279 130C97.8974 125.59 102.627 121.462 106.798 117.821ZM77.6373 153.272C73.8883 155.478 70.121 157.696 66 159C68.4304 154.381 70.945 149.813 73.4611 145.241C73.8723 144.494 74.2835 143.747 74.6944 143C74.9852 142.471 75.2725 141.9 75.5682 141.312C76.7582 138.946 78.0848 136.308 80.3287 135.067C86.4147 131.703 93.7896 139.566 89.9684 145.39C88.6285 147.433 86.0241 148.734 83.7087 149.891C83.111 150.19 82.5325 150.479 82 150.769C80.5356 151.566 79.0878 152.418 77.6373 153.272ZM134.679 137.445C134.811 136.594 134.939 135.768 135 135C135.821 134.935 136.734 134.778 137.682 134.615C140.055 134.206 142.653 133.759 144.61 134.618C146.573 135.481 147.641 137.653 148.6 139.605C148.839 140.092 149.071 140.565 149.309 141.001C150.313 142.84 151.364 144.662 152.416 146.487C154.775 150.58 157.14 154.684 159 159C154.26 157.275 149.832 154.64 145.458 152.038C144.303 151.35 143.152 150.665 142 150C141.566 149.749 141.105 149.5 140.634 149.246C138.521 148.102 136.194 146.844 135.042 144.787C133.864 142.685 134.289 139.955 134.679 137.445Z" fill="#070707"/>
</svg>
